<?xml version="1.0" encoding="UTF-8"?>
<svg xmlns="http://www.w3.org/2000/svg" xmlns:xlink="http://www.w3.org/1999/xlink" width="236px" height="150px" viewBox="0 0 235 150" version="1.1">
<g id="surface1">
<path style=" stroke:none;fill-rule:nonzero;fill:rgb(20.392157%,20.392157%,20%);fill-opacity:1;" d="M 167.238281 33.609375 C 161.8125 33.609375 156.382812 33.609375 150.957031 33.609375 C 150.890625 33.453125 150.824219 33.289062 150.761719 33.132812 C 166.226562 24.460938 181.695312 15.785156 197.636719 6.851562 C 197.636719 24.691406 197.636719 42.140625 197.636719 59.949219 C 194.566406 54.753906 191.566406 49.691406 188.0625 43.78125 C 186.625 45.546875 185.566406 47.144531 184.21875 48.464844 C 167.386719 64.894531 148.121094 77.414062 125.503906 84.214844 C 101.113281 91.554688 76.605469 91.757812 52.113281 84.53125 C 51.210938 84.265625 50.332031 83.902344 49.417969 83.484375 C 98.753906 90.894531 137.988281 74.207031 167.640625 34.605469 C 167.5 34.269531 167.371094 33.9375 167.238281 33.609375 Z M 167.238281 33.609375 "/>
<path style=" stroke:none;fill-rule:nonzero;fill:rgb(11.764706%,15.294118%,33.72549%);fill-opacity:1;" d="M 95.710938 30.378906 C 101.554688 28.003906 107.433594 27.714844 113.203125 30.585938 C 118.921875 33.429688 122.503906 38.339844 125.554688 44.285156 C 126.144531 40.617188 126.523438 37.386719 127.207031 34.210938 C 129.878906 21.796875 135.554688 11.359375 147.003906 4.914062 C 153.257812 1.394531 160.023438 -0.238281 167.378906 0.0742188 C 142.1875 11.425781 129.285156 31.09375 127.253906 58.5625 C 126.933594 57.894531 126.605469 57.234375 126.300781 56.558594 C 122.867188 48.933594 118.46875 42.019531 111.78125 36.792969 C 107.0625 33.097656 101.730469 31.039062 95.710938 30.378906 Z M 95.710938 30.378906 "/>
<path style=" stroke:none;fill-rule:nonzero;fill:rgb(11.764706%,15.294118%,33.72549%);fill-opacity:1;" d="M 58.679688 62.050781 C 60.628906 58.296875 62.363281 54.574219 64.433594 51.050781 C 69.257812 42.867188 75.898438 36.882812 85.390625 34.664062 C 90.402344 33.492188 95.367188 33.625 100.265625 35.367188 C 78.699219 40.128906 65.519531 54.21875 56.855469 74.300781 C 55.894531 67.582031 54.390625 61.6875 51.117188 56.394531 C 47.863281 51.136719 43.410156 47.21875 37.582031 44.582031 C 41.945312 43.601562 48.167969 45.429688 52.082031 48.695312 C 56.222656 52.148438 57.785156 56.921875 58.679688 62.050781 Z M 58.679688 62.050781 "/>
<path style=" stroke:none;fill-rule:nonzero;fill:rgb(11.764706%,15.294118%,33.72549%);fill-opacity:1;" d="M 117.277344 24.707031 C 112.519531 24.671875 108.910156 21.039062 108.945312 16.296875 C 108.96875 11.625 112.71875 7.863281 117.34375 7.855469 C 122.042969 7.847656 125.890625 11.757812 125.816406 16.464844 C 125.75 21.113281 121.996094 24.738281 117.277344 24.707031 Z M 117.277344 24.707031 "/>
<path style=" stroke:none;fill-rule:nonzero;fill:rgb(11.764706%,15.294118%,33.72549%);fill-opacity:1;" d="M 52.402344 37.320312 C 52.425781 33.378906 55.476562 30.394531 59.445312 30.425781 C 63.363281 30.460938 66.4375 33.601562 66.371094 37.492188 C 66.308594 41.332031 63.011719 44.566406 59.253906 44.472656 C 55.335938 44.382812 52.386719 41.300781 52.402344 37.320312 Z M 52.402344 37.320312 "/>
<path style=" stroke:none;fill-rule:nonzero;fill:rgb(8.627451%,42.745098%,30.196078%);fill-opacity:1;" d="M 20.226562 108.1875 L 15.582031 114.484375 C 13.429688 117.503906 11.777344 119.003906 10.617188 119.003906 C 10.074219 119.003906 9.597656 118.691406 9.179688 118.070312 C 8.761719 117.453125 8.332031 116.507812 7.898438 115.238281 C 7.460938 113.96875 7.148438 113.003906 6.976562 112.351562 C 6.574219 110.84375 6.304688 109.984375 6.164062 109.777344 L 5.449219 113.414062 C 5.226562 114.59375 4.996094 115.671875 4.765625 116.65625 C 4.535156 117.636719 4.28125 118.824219 4.003906 120.199219 C 3.730469 121.574219 3.558594 122.621094 3.492188 123.324219 C 3.476562 123.554688 3.253906 123.808594 2.828125 124.082031 C 2.398438 124.355469 2.078125 124.484375 1.855469 124.484375 C 1.414062 124.484375 0.996094 124.28125 0.609375 123.859375 C 0.222656 123.4375 0.03125 123.042969 0.03125 122.664062 C 0.03125 121.765625 0.222656 120.628906 0.589844 119.25 C 2.128906 113.597656 3 110.035156 3.222656 108.566406 C 3.445312 107.101562 3.550781 105.886719 3.550781 104.914062 C 3.550781 104.414062 3.773438 104.023438 4.207031 103.753906 C 4.644531 103.480469 5.21875 103.347656 5.925781 103.347656 C 6.304688 103.347656 6.691406 103.605469 7.066406 104.109375 C 7.445312 104.609375 7.699219 105.082031 7.824219 105.507812 L 7.808594 105.484375 L 9.746094 110.933594 C 10.519531 113.109375 11.039062 114.484375 11.292969 115.078125 C 12.292969 113.992188 13.78125 112.085938 15.753906 109.382812 C 17.726562 106.6875 19.074219 104.949219 19.796875 104.171875 C 20.523438 103.398438 21.039062 103.011719 21.335938 103.011719 C 21.789062 103.011719 22.296875 103.199219 22.855469 103.589844 C 23.414062 103.96875 23.695312 104.296875 23.695312 104.570312 C 23.695312 104.777344 23.511719 106.175781 23.152344 108.78125 C 22.898438 110.621094 22.675781 112.679688 22.46875 114.957031 C 22.265625 117.230469 22.164062 118.574219 22.164062 118.988281 C 22.164062 119.488281 22.230469 120.007812 22.363281 120.535156 C 22.453125 120.949219 22.503906 121.335938 22.503906 121.699219 C 22.503906 122.621094 22.339844 123.25 22.015625 123.585938 C 21.695312 123.925781 21.203125 124.089844 20.53125 124.089844 C 19.3125 124.089844 18.707031 123.175781 18.707031 121.328125 C 18.707031 119.589844 18.863281 117.46875 19.183594 114.964844 C 19.503906 112.457031 19.789062 110.539062 20.046875 109.195312 C 20.136719 108.714844 20.191406 108.378906 20.226562 108.1875 Z M 20.226562 108.1875 "/>
<path style=" stroke:none;fill-rule:nonzero;fill:rgb(8.627451%,42.745098%,30.196078%);fill-opacity:1;" d="M 36.703125 118.914062 C 34.253906 122.152344 31.894531 123.769531 29.609375 123.769531 C 28.773438 123.769531 28.050781 123.4375 27.449219 122.769531 C 26.839844 122.113281 26.546875 121.261719 26.546875 120.242188 C 26.546875 117.765625 27.648438 115.136719 29.839844 112.335938 C 32.035156 109.539062 34.253906 108.140625 36.480469 108.140625 C 37.617188 108.140625 38.363281 108.714844 38.71875 109.863281 C 39.785156 109.863281 40.320312 110.273438 40.320312 111.089844 C 40.320312 111.484375 40.222656 112.195312 40.015625 113.21875 C 39.644531 115.136719 39.457031 116.671875 39.457031 117.824219 C 39.457031 119.019531 39.539062 119.859375 39.703125 120.347656 C 39.867188 120.832031 39.984375 121.148438 40.058594 121.296875 C 40.132812 121.445312 40.351562 121.601562 40.722656 121.773438 C 41.09375 121.953125 41.28125 122.203125 41.28125 122.515625 C 41.28125 122.992188 41.042969 123.390625 40.566406 123.703125 C 40.089844 124.015625 39.589844 124.179688 39.0625 124.179688 C 37.3125 124.1875 36.523438 122.433594 36.703125 118.914062 Z M 35.867188 111.140625 C 34.929688 111.140625 33.703125 112.1875 32.199219 114.273438 C 30.695312 116.359375 29.949219 118.128906 29.949219 119.582031 C 29.949219 120.347656 30.105469 120.726562 30.425781 120.726562 C 31.527344 120.726562 32.875 119.746094 34.476562 117.792969 C 36.078125 115.839844 36.882812 114.125 36.882812 112.664062 C 36.882812 112.195312 36.777344 111.824219 36.574219 111.550781 C 36.359375 111.28125 36.128906 111.140625 35.867188 111.140625 Z M 35.867188 111.140625 "/>
<path style=" stroke:none;fill-rule:nonzero;fill:rgb(8.627451%,42.745098%,30.196078%);fill-opacity:1;" d="M 48.964844 99.902344 C 49.96875 99.902344 50.46875 100.457031 50.46875 101.550781 C 50.46875 102.054688 50.394531 102.597656 50.265625 103.183594 C 50.125 103.769531 49.746094 105.210938 49.121094 107.511719 C 48.671875 109.1875 48.316406 111.007812 48.078125 112.976562 C 47.839844 114.949219 47.726562 116.496094 47.726562 117.601562 C 47.726562 118.789062 47.816406 120.199219 47.988281 121.832031 C 48.039062 122.269531 48.0625 122.546875 48.0625 122.65625 C 48.0625 123.214844 47.855469 123.695312 47.445312 124.097656 C 47.035156 124.503906 46.589844 124.699219 46.105469 124.699219 C 45.449219 124.699219 44.980469 124.386719 44.707031 123.761719 C 44.4375 123.132812 44.304688 122.0625 44.304688 120.535156 C 44.304688 117.265625 44.691406 113.40625 45.457031 108.964844 C 46.222656 104.519531 46.855469 101.898438 47.339844 101.097656 C 47.832031 100.308594 48.375 99.902344 48.964844 99.902344 Z M 48.964844 99.902344 "/>
<path style=" stroke:none;fill-rule:nonzero;fill:rgb(8.627451%,42.745098%,30.196078%);fill-opacity:1;" d="M 52.976562 114.304688 L 52.976562 114.320312 C 53.273438 112.625 53.421875 111.652344 53.421875 111.410156 C 53.421875 110.71875 53.566406 110.140625 53.871094 109.671875 C 54.175781 109.203125 54.59375 108.972656 55.136719 108.972656 C 55.769531 108.972656 56.265625 109.121094 56.617188 109.417969 C 56.96875 109.714844 57.144531 110.050781 57.144531 110.421875 C 57.144531 110.792969 56.96875 111.566406 56.625 112.730469 L 56.542969 113.035156 C 56.035156 114.832031 55.722656 116.308594 55.621094 117.445312 C 55.523438 118.582031 55.464844 119.507812 55.464844 120.207031 C 55.464844 120.777344 55.566406 121.535156 55.761719 122.492188 C 55.789062 122.65625 55.804688 122.796875 55.804688 122.910156 C 55.804688 123.125 55.597656 123.414062 55.195312 123.777344 C 54.792969 124.140625 54.355469 124.320312 53.890625 124.320312 C 52.664062 124.320312 52.046875 123.390625 52.046875 121.519531 C 52.046875 119.933594 52.269531 117.996094 52.722656 115.722656 C 52.8125 115.226562 52.902344 114.75 52.976562 114.304688 Z M 59.714844 102.796875 C 59.714844 103.457031 59.417969 104.042969 58.820312 104.535156 C 58.226562 105.039062 57.710938 105.285156 57.273438 105.285156 C 56.714844 105.285156 56.222656 105.054688 55.789062 104.585938 C 55.351562 104.117188 55.136719 103.65625 55.136719 103.183594 C 55.136719 102.507812 55.351562 101.972656 55.777344 101.550781 C 56.207031 101.140625 56.824219 100.925781 57.621094 100.925781 C 58.246094 100.925781 58.746094 101.105469 59.132812 101.476562 C 59.519531 101.855469 59.714844 102.292969 59.714844 102.796875 Z M 59.714844 102.796875 "/>
<path style=" stroke:none;fill-rule:nonzero;fill:rgb(8.627451%,42.745098%,30.196078%);fill-opacity:1;" d="M 66.757812 120.042969 C 66.71875 119.539062 65.921875 118.921875 64.359375 118.195312 C 62.445312 117.273438 61.21875 116.472656 60.683594 115.804688 C 60.160156 115.136719 59.886719 114.414062 59.886719 113.628906 C 59.886719 111.980469 60.808594 110.53125 62.65625 109.292969 C 64.507812 108.054688 66.226562 107.4375 67.828125 107.4375 C 69.398438 107.4375 70.1875 108.121094 70.1875 109.5 C 70.1875 109.863281 70.003906 110.191406 69.652344 110.480469 C 69.289062 110.769531 68.984375 110.917969 68.738281 110.917969 C 68.640625 110.917969 68.453125 110.851562 68.195312 110.71875 C 67.933594 110.585938 67.738281 110.519531 67.597656 110.519531 C 66.765625 110.519531 65.855469 110.800781 64.859375 111.363281 C 63.867188 111.921875 63.363281 112.574219 63.363281 113.324219 C 63.363281 113.6875 63.546875 114.042969 63.898438 114.378906 C 64.253906 114.71875 64.976562 115.144531 66.058594 115.65625 C 67.671875 116.421875 68.730469 117.117188 69.242188 117.726562 C 69.75 118.34375 70.003906 119.019531 70.003906 119.769531 C 70.003906 121.128906 69.085938 122.269531 67.253906 123.175781 C 65.410156 124.082031 63.347656 124.542969 61.0625 124.542969 C 59.378906 124.542969 58.539062 123.933594 58.539062 122.714844 C 58.539062 122.269531 58.714844 121.878906 59.066406 121.566406 C 59.417969 121.246094 59.8125 121.089844 60.25 121.089844 C 60.429688 121.089844 60.703125 121.15625 61.070312 121.289062 C 61.441406 121.425781 61.785156 121.492188 62.105469 121.492188 C 62.976562 121.492188 63.898438 121.351562 64.851562 121.074219 C 65.820312 120.800781 66.453125 120.453125 66.757812 120.042969 Z M 66.757812 120.042969 "/>
<path style=" stroke:none;fill-rule:nonzero;fill:rgb(8.627451%,42.745098%,30.196078%);fill-opacity:1;" d="M 75.429688 117.148438 C 76.972656 114.246094 78.304688 112.269531 79.421875 111.222656 C 80.542969 110.175781 81.675781 109.648438 82.816406 109.648438 C 83.605469 109.648438 84.265625 109.917969 84.789062 110.464844 C 85.316406 111.007812 85.703125 112.433594 85.941406 114.726562 C 86.039062 115.8125 86.171875 116.695312 86.335938 117.371094 C 86.492188 118.039062 86.671875 118.640625 86.871094 119.152344 C 87.066406 119.671875 87.347656 120.15625 87.707031 120.609375 C 87.988281 120.972656 88.128906 121.328125 88.128906 121.65625 C 88.128906 121.996094 87.960938 122.300781 87.640625 122.582031 C 87.320312 122.863281 86.953125 123 86.53125 123 C 85.703125 123 84.972656 122.546875 84.332031 121.640625 C 83.6875 120.734375 83.304688 119.480469 83.1875 117.890625 C 83.039062 115.9375 82.875 114.691406 82.703125 114.15625 C 82.53125 113.613281 82.242188 113.347656 81.847656 113.347656 C 81.304688 113.347656 80.261719 114.429688 78.699219 116.589844 C 77.140625 118.75 76.019531 120.480469 75.332031 121.773438 C 74.902344 122.753906 74.574219 123.390625 74.335938 123.679688 C 74.105469 123.964844 73.820312 124.113281 73.472656 124.113281 C 72.90625 124.113281 72.445312 123.972656 72.09375 123.695312 C 71.738281 123.414062 71.566406 123.019531 71.566406 122.507812 C 71.566406 122.25 71.691406 121.46875 71.945312 120.140625 C 72.890625 115.128906 73.671875 109.796875 74.277344 104.140625 C 74.425781 102.78125 74.714844 101.839844 75.132812 101.320312 C 75.5625 100.800781 75.945312 100.546875 76.300781 100.546875 C 76.792969 100.546875 77.222656 100.734375 77.582031 101.125 C 77.945312 101.503906 78.125 102.039062 78.125 102.722656 C 78.125 103.769531 78 104.972656 77.746094 106.332031 C 77.492188 107.695312 77.023438 109.871094 76.339844 112.855469 C 75.914062 114.652344 75.609375 116.085938 75.429688 117.148438 Z M 75.429688 117.148438 "/>
<path style=" stroke:none;fill-rule:nonzero;fill:rgb(8.627451%,42.745098%,30.196078%);fill-opacity:1;" d="M 99.648438 118.914062 C 97.199219 122.152344 94.839844 123.769531 92.558594 123.769531 C 91.71875 123.769531 90.996094 123.4375 90.394531 122.769531 C 89.789062 122.113281 89.492188 121.261719 89.492188 120.242188 C 89.492188 117.765625 90.59375 115.136719 92.785156 112.335938 C 94.980469 109.539062 97.199219 108.140625 99.425781 108.140625 C 100.5625 108.140625 101.308594 108.714844 101.664062 109.863281 C 102.730469 109.863281 103.265625 110.273438 103.265625 111.089844 C 103.265625 111.484375 103.167969 112.195312 102.960938 113.21875 C 102.589844 115.136719 102.402344 116.671875 102.402344 117.824219 C 102.402344 119.019531 102.484375 119.859375 102.648438 120.347656 C 102.8125 120.832031 102.929688 121.148438 103.003906 121.296875 C 103.078125 121.445312 103.296875 121.601562 103.667969 121.773438 C 104.039062 121.953125 104.226562 122.203125 104.226562 122.515625 C 104.226562 122.992188 103.988281 123.390625 103.511719 123.703125 C 103.035156 124.015625 102.535156 124.179688 102.007812 124.179688 C 100.265625 124.1875 99.476562 122.433594 99.648438 118.914062 Z M 98.820312 111.140625 C 97.882812 111.140625 96.65625 112.1875 95.152344 114.273438 C 93.648438 116.359375 92.902344 118.128906 92.902344 119.582031 C 92.902344 120.347656 93.058594 120.726562 93.378906 120.726562 C 94.480469 120.726562 95.828125 119.746094 97.429688 117.792969 C 99.03125 115.839844 99.839844 114.125 99.839844 112.664062 C 99.839844 112.195312 99.730469 111.824219 99.527344 111.550781 C 99.3125 111.28125 99.074219 111.140625 98.820312 111.140625 Z M 98.820312 111.140625 "/>
<path style=" stroke:none;fill-rule:nonzero;fill:rgb(8.627451%,42.745098%,30.196078%);fill-opacity:1;" d="M 123.082031 106.242188 L 118.78125 106.464844 C 117.285156 106.546875 115.996094 106.679688 114.917969 106.859375 C 113.84375 107.042969 113.257812 107.183594 113.167969 107.28125 C 113.078125 107.378906 113.019531 107.667969 112.980469 108.140625 C 112.929688 108.609375 112.765625 109.425781 112.476562 110.605469 C 112.25 111.503906 112.109375 112.234375 112.058594 112.804688 C 112.652344 112.804688 113.515625 112.746094 114.625 112.625 C 115.742188 112.5 116.53125 112.382812 117 112.269531 C 118.339844 111.9375 119.375 111.78125 120.113281 111.78125 C 121.585938 111.78125 122.316406 112.21875 122.316406 113.101562 C 122.316406 113.746094 122.109375 114.191406 121.699219 114.4375 C 121.289062 114.683594 120.648438 114.855469 119.777344 114.949219 C 119.234375 115.003906 118.632812 115.089844 117.960938 115.203125 C 117.605469 115.261719 117.164062 115.320312 116.636719 115.367188 C 114.054688 115.664062 112.535156 115.894531 112.074219 116.070312 L 112.058594 116.070312 C 111.902344 116.117188 111.78125 116.226562 111.707031 116.390625 C 111.625 116.554688 111.484375 117.246094 111.277344 118.46875 C 111.074219 119.6875 110.972656 120.535156 110.972656 121.023438 C 111.023438 121.371094 111.238281 121.542969 111.617188 121.542969 C 112.058594 121.542969 113.234375 121.417969 115.140625 121.171875 C 117.039062 120.925781 118.222656 120.75 118.675781 120.660156 C 119.949219 120.386719 120.777344 120.257812 121.171875 120.257812 C 122.355469 120.421875 122.949219 120.972656 122.949219 121.90625 C 122.949219 122.335938 122.808594 122.664062 122.53125 122.886719 C 121.601562 123.308594 120.3125 123.570312 118.667969 123.667969 C 117.394531 123.742188 115.847656 123.898438 114.03125 124.148438 C 112.414062 124.492188 110.882812 124.667969 109.453125 124.667969 C 108.699219 124.667969 108.15625 124.503906 107.820312 124.179688 C 107.480469 123.859375 107.285156 123.355469 107.21875 122.671875 L 107.175781 122.210938 C 107.167969 122.136719 107.25 121.847656 107.414062 121.351562 C 107.785156 120.207031 108.246094 117.652344 108.78125 113.695312 C 109.324219 109.738281 109.585938 107.535156 109.585938 107.09375 C 109.585938 107.082031 109.5625 107.042969 109.503906 106.976562 C 109.4375 106.917969 109.332031 106.738281 109.175781 106.441406 C 109.019531 106.136719 108.945312 105.832031 108.945312 105.507812 C 108.945312 105.34375 108.960938 105.203125 109.003906 105.105469 C 109.042969 104.90625 109.242188 104.710938 109.601562 104.519531 C 109.964844 104.320312 110.300781 104.222656 110.621094 104.222656 C 111.058594 104.222656 111.5 104.246094 111.945312 104.304688 C 112.71875 104.304688 115.230469 104.023438 119.480469 103.464844 C 120.894531 103.273438 121.632812 103.183594 121.699219 103.183594 L 121.898438 103.167969 C 123.574219 103.042969 124.410156 103.589844 124.410156 104.792969 C 124.410156 105.015625 124.265625 105.292969 123.960938 105.625 C 123.65625 105.960938 123.359375 106.167969 123.082031 106.242188 Z M 123.082031 106.242188 "/>
<path style=" stroke:none;fill-rule:nonzero;fill:rgb(8.627451%,42.745098%,30.196078%);fill-opacity:1;" d="M 136.171875 118.929688 C 133.765625 122.351562 131.339844 124.066406 128.898438 124.066406 C 127.914062 124.066406 127.117188 123.679688 126.515625 122.894531 C 125.90625 122.121094 125.613281 121.121094 125.613281 119.917969 C 125.613281 117.488281 126.605469 115.0625 128.59375 112.65625 C 130.582031 110.25 132.589844 109.046875 134.628906 109.046875 C 135.800781 109.046875 136.632812 109.351562 137.125 109.96875 C 137.824219 106.910156 138.234375 105 138.367188 104.230469 C 138.644531 102.8125 138.875 101.875 139.066406 101.402344 C 139.253906 100.933594 139.535156 100.578125 139.921875 100.316406 C 140.296875 100.058594 140.636719 99.929688 140.914062 99.929688 C 141.390625 99.929688 141.753906 100.125 142 100.511719 C 142.253906 100.910156 142.378906 101.402344 142.378906 101.996094 C 142.378906 102.261719 142.171875 103.011719 141.761719 104.246094 C 141.09375 106.265625 140.472656 108.699219 139.894531 111.550781 C 139.320312 114.402344 139.039062 116.679688 139.039062 118.367188 C 139.039062 119.984375 139.394531 120.792969 140.101562 120.792969 C 140.460938 120.792969 140.847656 120.695312 141.257812 120.496094 C 141.671875 120.304688 141.957031 120.214844 142.121094 120.214844 C 142.574219 120.214844 142.804688 120.480469 142.804688 121.015625 C 142.804688 121.65625 142.34375 122.300781 141.414062 122.9375 C 140.488281 123.578125 139.617188 123.890625 138.785156 123.890625 C 137.890625 123.890625 137.207031 123.414062 136.722656 122.449219 C 136.230469 121.507812 136.050781 120.324219 136.171875 118.929688 Z M 134.628906 111.742188 C 133.410156 111.742188 132.136719 112.671875 130.8125 114.542969 C 129.492188 116.40625 128.824219 118.121094 128.824219 119.664062 C 128.824219 120.570312 129.160156 121.023438 129.828125 121.023438 C 130.960938 121.023438 132.316406 120.007812 133.886719 117.980469 C 135.457031 115.953125 136.246094 114.355469 136.246094 113.183594 C 136.246094 112.828125 136.097656 112.5 135.800781 112.195312 C 135.5 111.898438 135.105469 111.742188 134.628906 111.742188 Z M 134.628906 111.742188 "/>
<path style=" stroke:none;fill-rule:nonzero;fill:rgb(8.627451%,42.745098%,30.196078%);fill-opacity:1;" d="M 154.96875 118.476562 C 154.074219 120.109375 153.035156 121.410156 151.863281 122.367188 C 150.6875 123.332031 149.496094 123.808594 148.277344 123.808594 C 147.5625 123.808594 146.839844 123.429688 146.109375 122.671875 C 145.378906 121.914062 145.015625 120.75 145.015625 119.183594 C 145.015625 118.070312 145.296875 116.398438 145.855469 114.15625 C 146.339844 112.308594 146.578125 110.910156 146.578125 109.945312 C 146.945312 109.160156 147.53125 108.765625 148.320312 108.765625 C 148.863281 108.765625 149.289062 108.945312 149.609375 109.300781 C 149.929688 109.664062 150.09375 110.019531 150.09375 110.390625 C 150.09375 111.046875 149.863281 111.996094 149.394531 113.21875 C 149.125 113.941406 148.835938 114.972656 148.523438 116.300781 C 148.210938 117.628906 148.054688 118.484375 148.054688 118.855469 C 148.054688 120.101562 148.3125 120.71875 148.820312 120.71875 C 149.625 120.71875 150.71875 119.933594 152.101562 118.378906 C 153.472656 116.820312 154.375 115.21875 154.796875 113.585938 C 155.214844 111.988281 155.585938 110.949219 155.914062 110.457031 C 156.242188 109.960938 156.703125 109.714844 157.292969 109.714844 C 158.265625 109.714844 158.75 110.257812 158.75 111.335938 C 158.75 111.492188 158.667969 111.816406 158.511719 112.285156 C 157.960938 113.933594 157.6875 115.796875 157.6875 117.875 C 157.6875 120.296875 158.097656 121.75 158.914062 122.226562 C 159.183594 122.382812 159.316406 122.582031 159.316406 122.8125 C 159.316406 123.148438 159.078125 123.464844 158.601562 123.761719 C 158.125 124.058594 157.671875 124.207031 157.246094 124.207031 C 156.511719 124.207031 155.945312 123.6875 155.550781 122.648438 C 155.164062 121.632812 154.96875 120.230469 154.96875 118.476562 Z M 154.96875 118.476562 "/>
<path style=" stroke:none;fill-rule:nonzero;fill:rgb(10.980392%,15.294118%,32.54902%);fill-opacity:1;" d="M 171.347656 122.605469 C 172.332031 122.359375 173.328125 122.101562 174.332031 121.832031 L 174.332031 115.765625 L 171.699219 115.765625 L 171.699219 114.253906 L 174.332031 114.253906 L 174.332031 109.398438 L 171.535156 109.398438 L 171.535156 107.890625 L 178.71875 107.890625 L 178.71875 109.398438 L 175.925781 109.398438 L 175.925781 114.253906 L 178.515625 114.253906 L 178.515625 115.765625 L 175.925781 115.765625 L 175.925781 121.386719 C 176.835938 121.121094 177.757812 120.84375 178.679688 120.5625 C 178.679688 121.230469 178.695312 121.78125 178.71875 122.21875 C 176.550781 122.84375 174.199219 123.5625 171.667969 124.355469 Z M 179.425781 120.074219 L 188.566406 120.074219 L 188.566406 121.601562 L 179.425781 121.601562 Z M 182.613281 109.878906 L 182.097656 115.78125 L 187.257812 115.78125 L 187.890625 108.574219 L 179.878906 108.574219 L 179.878906 107.050781 L 189.640625 107.050781 L 188.859375 115.78125 L 191.375 115.78125 C 191.253906 119.160156 191.128906 121.617188 191.023438 123.167969 C 190.898438 125.382812 189.773438 126.496094 187.644531 126.496094 C 186.839844 126.496094 185.664062 126.472656 184.121094 126.429688 C 184.035156 125.902344 183.9375 125.300781 183.824219 124.632812 C 184.992188 124.75 186.238281 124.808594 187.5625 124.824219 C 188.6875 124.824219 189.304688 124.164062 189.394531 122.851562 C 189.492188 121.722656 189.585938 119.878906 189.667969 117.304688 L 180.296875 117.304688 L 180.988281 109.878906 Z M 182.613281 109.878906 "/>
<path style=" stroke:none;fill-rule:nonzero;fill:rgb(10.980392%,15.294118%,32.54902%);fill-opacity:1;" d="M 192.796875 124.304688 L 202.273438 124.304688 L 202.273438 121.558594 L 194.046875 121.558594 L 194.046875 120.09375 L 202.273438 120.09375 L 202.273438 117.347656 L 196.472656 117.347656 L 196.472656 118.097656 L 194.84375 118.097656 L 194.84375 107.371094 L 211.414062 107.371094 L 211.414062 118.113281 L 209.785156 118.113281 L 209.785156 117.363281 L 203.96875 117.363281 L 203.96875 120.109375 L 212.210938 120.109375 L 212.210938 121.574219 L 203.96875 121.574219 L 203.96875 124.320312 L 213.550781 124.320312 L 213.550781 125.828125 L 192.804688 125.828125 L 192.804688 124.304688 Z M 196.472656 111.640625 L 202.273438 111.640625 L 202.273438 108.816406 L 196.472656 108.816406 Z M 196.472656 115.914062 L 202.273438 115.914062 L 202.273438 113.085938 L 196.472656 113.085938 Z M 209.792969 108.816406 L 203.976562 108.816406 L 203.976562 111.640625 L 209.792969 111.640625 Z M 203.96875 115.914062 L 209.785156 115.914062 L 209.785156 113.085938 L 203.96875 113.085938 Z M 203.96875 115.914062 "/>
<path style=" stroke:none;fill-rule:nonzero;fill:rgb(10.980392%,15.294118%,32.54902%);fill-opacity:1;" d="M 215.234375 115.097656 C 216.558594 116.003906 217.675781 116.851562 218.597656 117.652344 L 217.550781 118.972656 C 216.148438 117.742188 215.039062 116.859375 214.230469 116.332031 Z M 214.320312 108.542969 L 220.042969 108.542969 L 220.042969 106.285156 L 221.710938 106.285156 L 221.710938 108.542969 L 227.347656 108.542969 L 227.347656 106.285156 L 229.015625 106.285156 L 229.015625 108.542969 L 234.753906 108.542969 L 234.753906 110.027344 L 229.015625 110.027344 L 229.015625 111.765625 L 227.347656 111.765625 L 227.347656 110.027344 L 221.710938 110.027344 L 221.710938 111.863281 L 220.042969 111.863281 L 220.042969 110.027344 L 214.320312 110.027344 Z M 218.933594 119.382812 C 219.335938 119.730469 219.8125 120.101562 220.371094 120.496094 C 218.5625 123.355469 217.15625 125.507812 216.15625 126.941406 L 214.652344 125.828125 C 216.15625 123.933594 217.585938 121.78125 218.933594 119.382812 Z M 217.496094 111.660156 C 218.71875 112.484375 219.886719 113.324219 221.003906 114.191406 L 219.878906 115.507812 C 218.816406 114.578125 217.691406 113.679688 216.5 112.828125 Z M 219.679688 125.328125 C 225.425781 124.320312 229.386719 121.988281 231.554688 118.3125 L 232.996094 119.234375 C 230.308594 123.214844 226.171875 125.78125 220.601562 126.941406 C 220.378906 126.496094 220.074219 125.953125 219.679688 125.328125 Z M 223.503906 114.023438 L 225.007812 114.59375 C 224.308594 116.40625 223.484375 118.320312 222.523438 120.332031 C 222.039062 120.066406 221.511719 119.8125 220.960938 119.582031 C 221.980469 117.757812 222.835938 115.914062 223.503906 114.023438 Z M 226.824219 112.1875 L 228.449219 112.1875 L 228.449219 121.164062 L 226.824219 121.164062 Z M 230.308594 114.757812 L 231.582031 113.875 C 232.863281 115.402344 234.003906 116.851562 235 118.230469 L 233.621094 119.25 C 232.632812 117.777344 231.53125 116.273438 230.308594 114.757812 Z M 230.308594 114.757812 "/>
<path style=" stroke:none;fill-rule:nonzero;fill:rgb(20.392157%,20.392157%,20%);fill-opacity:1;" d="M 164.820312 107.125 L 165.964844 107.125 L 165.964844 124.75 L 164.820312 124.75 Z M 164.820312 107.125 "/>
<path style=" stroke:none;fill-rule:nonzero;fill:rgb(10.980392%,15.294118%,32.54902%);fill-opacity:1;" d="M 0.304688 133.109375 C 0.246094 133.007812 0.222656 132.886719 0.222656 132.730469 C 0.222656 132.5 0.304688 132.351562 0.46875 132.265625 C 0.632812 132.183594 1.117188 132.144531 1.929688 132.128906 C 2.933594 132.117188 3.828125 132.085938 4.628906 132.019531 C 5.425781 131.953125 6.648438 131.804688 8.308594 131.574219 C 8.933594 131.492188 9.535156 131.441406 10.101562 131.441406 C 10.386719 131.441406 10.660156 131.460938 10.914062 131.492188 C 11.167969 131.527344 11.359375 131.558594 11.464844 131.589844 C 11.570312 131.625 11.660156 131.714844 11.726562 131.863281 C 11.792969 132.011719 11.828125 132.128906 11.828125 132.210938 C 11.828125 132.5625 11.703125 132.746094 11.449219 132.746094 C 11.285156 132.746094 11.054688 132.730469 10.773438 132.695312 C 10.488281 132.671875 10.09375 132.65625 9.589844 132.65625 C 9.082031 132.65625 8.457031 132.6875 7.726562 132.761719 C 6.992188 132.835938 6.589844 132.953125 6.507812 133.125 C 6.425781 133.289062 6.296875 134.269531 6.113281 136.074219 C 5.933594 137.882812 5.84375 139.214844 5.84375 140.097656 C 5.84375 140.511719 5.910156 140.980469 6.03125 141.507812 C 6.046875 141.605469 6.066406 141.671875 6.066406 141.691406 C 6.066406 141.914062 6.007812 142.109375 5.882812 142.292969 C 5.761719 142.472656 5.621094 142.5625 5.449219 142.5625 C 5.1875 142.5625 4.972656 142.441406 4.800781 142.183594 C 4.628906 141.929688 4.535156 141.226562 4.535156 140.066406 C 4.535156 138.96875 4.742188 136.824219 5.160156 133.636719 C 5.175781 133.460938 5.195312 133.378906 5.195312 133.371094 C 5.195312 133.199219 5.105469 133.117188 4.914062 133.117188 C 4.609375 133.117188 4.035156 133.15625 3.1875 133.230469 C 2.34375 133.3125 1.734375 133.355469 1.371094 133.355469 C 0.8125 133.363281 0.460938 133.28125 0.304688 133.109375 Z M 0.304688 133.109375 "/>
<path style=" stroke:none;fill-rule:nonzero;fill:rgb(10.980392%,15.294118%,32.54902%);fill-opacity:1;" d="M 12.597656 140.023438 C 14.464844 136.5625 16.007812 134.832031 17.21875 134.832031 C 17.539062 134.832031 17.800781 135.011719 18 135.382812 C 18.195312 135.753906 18.359375 136.570312 18.492188 137.832031 C 18.613281 139.175781 18.902344 140.148438 19.347656 140.75 C 19.566406 141.054688 19.683594 141.285156 19.683594 141.433594 C 19.683594 141.566406 19.609375 141.691406 19.453125 141.796875 C 19.304688 141.902344 19.140625 141.960938 18.96875 141.960938 C 18.574219 141.960938 18.230469 141.738281 17.925781 141.300781 C 17.621094 140.855469 17.429688 140.089844 17.339844 138.976562 C 17.257812 137.929688 17.167969 137.246094 17.070312 136.925781 C 16.972656 136.605469 16.816406 136.4375 16.59375 136.4375 C 16.066406 136.4375 15.007812 137.824219 13.40625 140.585938 C 12.925781 141.410156 12.574219 141.953125 12.351562 142.210938 C 12.128906 142.464844 11.917969 142.589844 11.734375 142.589844 C 11.515625 142.589844 11.324219 142.523438 11.175781 142.390625 C 11.027344 142.257812 10.957031 142.101562 10.957031 141.902344 C 10.957031 141.765625 10.996094 141.492188 11.078125 141.089844 C 11.695312 137.890625 12.179688 134.722656 12.542969 131.601562 C 12.625 130.867188 12.746094 130.378906 12.925781 130.140625 C 13.109375 129.902344 13.257812 129.777344 13.378906 129.777344 C 13.59375 129.777344 13.789062 129.867188 13.964844 130.042969 C 14.136719 130.214844 14.226562 130.460938 14.226562 130.777344 C 14.226562 131.707031 14.003906 132.976562 13.550781 134.59375 C 13.332031 135.390625 13.101562 136.414062 12.855469 137.640625 C 12.605469 138.878906 12.484375 139.636719 12.484375 139.933594 C 12.484375 139.992188 12.507812 140.023438 12.566406 140.023438 Z M 12.597656 140.023438 "/>
<path style=" stroke:none;fill-rule:nonzero;fill:rgb(10.980392%,15.294118%,32.54902%);fill-opacity:1;" d="M 27.472656 139.734375 C 27.472656 140.246094 27.023438 140.875 26.117188 141.589844 C 25.214844 142.316406 24.277344 142.679688 23.316406 142.679688 C 22.511719 142.679688 21.886719 142.441406 21.441406 141.960938 C 21 141.484375 20.785156 140.816406 20.785156 139.957031 C 20.785156 138.515625 21.269531 137.148438 22.238281 135.84375 C 23.210938 134.542969 24.269531 133.890625 25.417969 133.890625 C 25.796875 133.890625 26.101562 134.015625 26.339844 134.261719 C 26.578125 134.507812 26.703125 134.804688 26.703125 135.152344 C 26.703125 135.925781 26.324219 136.667969 25.566406 137.378906 C 24.8125 138.085938 23.792969 138.789062 22.527344 139.472656 C 22.265625 139.613281 22.132812 139.785156 22.132812 140 C 22.132812 140.421875 22.253906 140.75 22.492188 141.003906 C 22.730469 141.261719 23.09375 141.386719 23.5625 141.386719 C 24.640625 141.386719 25.742188 140.78125 26.867188 139.585938 C 27.03125 139.421875 27.152344 139.339844 27.246094 139.339844 C 27.390625 139.347656 27.472656 139.472656 27.472656 139.734375 Z M 22.238281 138.558594 C 24.367188 137.289062 25.4375 136.265625 25.4375 135.5 C 25.4375 135.195312 25.296875 135.046875 25.023438 135.046875 C 24.566406 135.046875 24.039062 135.382812 23.464844 136.066406 C 22.878906 136.742188 22.476562 137.578125 22.238281 138.558594 Z M 22.238281 138.558594 "/>
<path style=" stroke:none;fill-rule:nonzero;fill:rgb(10.980392%,15.294118%,32.54902%);fill-opacity:1;" d="M 43.089844 140.015625 C 43.285156 140.015625 43.386719 140.140625 43.386719 140.378906 C 43.386719 140.632812 43.105469 140.988281 42.546875 141.460938 C 41.988281 141.929688 41.347656 142.300781 40.617188 142.582031 C 39.882812 142.859375 39.21875 142.992188 38.609375 142.992188 C 37.722656 142.992188 36.910156 142.695312 36.179688 142.109375 C 35.445312 141.523438 35.085938 140.667969 35.085938 139.546875 C 35.085938 137.511719 35.957031 135.523438 37.707031 133.585938 C 39.457031 131.65625 41.140625 130.691406 42.769531 130.691406 C 43.378906 130.691406 43.863281 130.882812 44.222656 131.253906 C 44.585938 131.625 44.765625 132.070312 44.765625 132.5625 C 44.765625 133.027344 44.742188 133.386719 44.683594 133.660156 C 44.632812 133.925781 44.46875 134.15625 44.207031 134.335938 C 43.945312 134.519531 43.730469 134.609375 43.566406 134.609375 C 43.453125 134.609375 43.351562 134.558594 43.261719 134.460938 C 43.179688 134.363281 43.128906 134.222656 43.128906 134.054688 C 43.128906 133.941406 43.171875 133.703125 43.261719 133.332031 C 43.34375 132.96875 43.394531 132.695312 43.394531 132.523438 C 43.394531 132.011719 43.171875 131.757812 42.71875 131.757812 C 42.03125 131.757812 41.167969 132.152344 40.148438 132.953125 C 39.128906 133.75 38.257812 134.765625 37.542969 135.984375 C 36.828125 137.207031 36.472656 138.34375 36.472656 139.375 C 36.472656 140.066406 36.679688 140.632812 37.089844 141.089844 C 37.5 141.542969 38.085938 141.773438 38.839844 141.773438 C 39.277344 141.773438 39.808594 141.664062 40.433594 141.441406 C 41.058594 141.21875 41.636719 140.929688 42.152344 140.558594 C 42.6875 140.199219 42.992188 140.015625 43.089844 140.015625 Z M 43.089844 140.015625 "/>
<path style=" stroke:none;fill-rule:nonzero;fill:rgb(10.980392%,15.294118%,32.54902%);fill-opacity:1;" d="M 47.238281 140.023438 C 49.105469 136.5625 50.652344 134.832031 51.859375 134.832031 C 52.179688 134.832031 52.441406 135.011719 52.640625 135.382812 C 52.835938 135.753906 53 136.570312 53.132812 137.832031 C 53.257812 139.175781 53.542969 140.148438 53.988281 140.75 C 54.210938 141.054688 54.324219 141.285156 54.324219 141.433594 C 54.324219 141.566406 54.25 141.691406 54.09375 141.796875 C 53.945312 141.902344 53.78125 141.960938 53.609375 141.960938 C 53.214844 141.960938 52.871094 141.738281 52.566406 141.300781 C 52.261719 140.855469 52.074219 140.089844 51.980469 138.976562 C 51.898438 137.929688 51.808594 137.246094 51.710938 136.925781 C 51.613281 136.605469 51.457031 136.4375 51.234375 136.4375 C 50.707031 136.4375 49.648438 137.824219 48.046875 140.585938 C 47.570312 141.410156 47.214844 141.953125 46.992188 142.210938 C 46.773438 142.464844 46.558594 142.589844 46.378906 142.589844 C 46.15625 142.589844 45.964844 142.523438 45.816406 142.390625 C 45.671875 142.257812 45.597656 142.101562 45.597656 141.902344 C 45.597656 141.765625 45.636719 141.492188 45.71875 141.089844 C 46.335938 137.890625 46.820312 134.722656 47.183594 131.601562 C 47.265625 130.867188 47.386719 130.378906 47.570312 130.140625 C 47.75 129.902344 47.898438 129.777344 48.019531 129.777344 C 48.234375 129.777344 48.433594 129.867188 48.605469 130.042969 C 48.777344 130.214844 48.867188 130.460938 48.867188 130.777344 C 48.867188 131.707031 48.644531 132.976562 48.191406 134.59375 C 47.972656 135.390625 47.742188 136.414062 47.496094 137.640625 C 47.25 138.878906 47.125 139.636719 47.125 139.933594 C 47.125 139.992188 47.148438 140.023438 47.207031 140.023438 Z M 47.238281 140.023438 "/>
<path style=" stroke:none;fill-rule:nonzero;fill:rgb(10.980392%,15.294118%,32.54902%);fill-opacity:1;" d="M 57.101562 140.617188 C 57.101562 140.996094 57.152344 141.433594 57.257812 141.914062 C 57.273438 142.003906 57.292969 142.078125 57.292969 142.144531 C 57.292969 142.234375 57.210938 142.347656 57.042969 142.496094 C 56.878906 142.636719 56.699219 142.710938 56.519531 142.710938 C 56.035156 142.710938 55.789062 142.265625 55.789062 141.367188 C 55.789062 140.445312 55.976562 138.976562 56.363281 136.972656 C 56.492188 136.273438 56.558594 135.84375 56.558594 135.679688 C 56.558594 135.367188 56.617188 135.09375 56.730469 134.863281 C 56.847656 134.640625 57.011719 134.527344 57.226562 134.527344 C 57.480469 134.527344 57.6875 134.582031 57.832031 134.707031 C 57.980469 134.832031 58.054688 134.972656 58.054688 135.121094 C 58.054688 135.269531 58.023438 135.464844 57.949219 135.714844 C 57.570312 137.039062 57.339844 137.996094 57.25 138.566406 C 57.152344 139.140625 57.101562 139.828125 57.101562 140.617188 Z M 58.089844 132.175781 C 57.980469 132.175781 57.898438 132.0625 57.851562 131.839844 C 57.832031 131.773438 57.800781 131.691406 57.769531 131.609375 C 57.628906 131.277344 57.5625 130.996094 57.5625 130.75 C 57.5625 130.554688 57.6875 130.347656 57.925781 130.132812 C 58.164062 129.917969 58.425781 129.820312 58.722656 129.820312 C 58.871094 129.820312 59.035156 129.875 59.214844 129.992188 C 59.394531 130.109375 59.484375 130.214844 59.484375 130.320312 C 59.484375 130.488281 59.417969 130.765625 59.304688 131.171875 C 59.179688 131.566406 58.984375 131.839844 58.714844 131.980469 C 58.433594 132.109375 58.226562 132.175781 58.089844 132.175781 Z M 58.089844 132.175781 "/>
<path style=" stroke:none;fill-rule:nonzero;fill:rgb(10.980392%,15.294118%,32.54902%);fill-opacity:1;" d="M 65.253906 136.480469 C 64.992188 136.480469 64.710938 136.652344 64.398438 136.992188 C 64.089844 137.335938 63.621094 138.105469 62.988281 139.300781 C 62.15625 140.898438 61.613281 141.8125 61.367188 142.035156 C 61.121094 142.257812 60.921875 142.367188 60.757812 142.367188 C 60.167969 142.367188 59.871094 142.078125 59.871094 141.507812 C 59.871094 141.269531 59.914062 140.921875 59.996094 140.476562 C 60.273438 138.960938 60.40625 137.355469 60.40625 135.664062 C 60.40625 135.472656 60.488281 135.261719 60.652344 135.027344 C 60.816406 134.796875 60.972656 134.675781 61.113281 134.675781 C 61.375 134.675781 61.554688 134.757812 61.671875 134.914062 C 61.777344 135.078125 61.835938 135.398438 61.835938 135.886719 C 61.835938 136.398438 61.6875 137.445312 61.382812 139.027344 C 61.285156 139.546875 61.234375 139.882812 61.234375 140.023438 C 61.234375 140.105469 61.253906 140.148438 61.292969 140.148438 C 61.367188 140.148438 61.722656 139.546875 62.335938 138.34375 C 62.960938 137.121094 63.511719 136.257812 63.988281 135.761719 C 64.457031 135.269531 64.984375 135.011719 65.550781 135.011719 C 66.003906 135.011719 66.371094 135.21875 66.652344 135.628906 C 66.929688 136.042969 67.144531 136.792969 67.277344 137.890625 C 67.417969 139.132812 67.546875 139.910156 67.65625 140.214844 C 67.769531 140.519531 67.949219 140.667969 68.195312 140.667969 C 68.351562 140.667969 68.550781 140.609375 68.78125 140.503906 C 68.820312 140.484375 68.855469 140.46875 68.871094 140.46875 C 69.085938 140.46875 69.191406 140.59375 69.191406 140.847656 C 69.191406 141.070312 69.042969 141.300781 68.746094 141.558594 C 68.453125 141.804688 68.097656 141.929688 67.679688 141.929688 C 67.253906 141.929688 66.921875 141.753906 66.683594 141.417969 C 66.453125 141.078125 66.265625 140.171875 66.132812 138.699219 C 66.003906 137.222656 65.707031 136.480469 65.253906 136.480469 Z M 65.253906 136.480469 "/>
<path style=" stroke:none;fill-rule:nonzero;fill:rgb(10.980392%,15.294118%,32.54902%);fill-opacity:1;" d="M 76.800781 139.734375 C 76.800781 140.246094 76.351562 140.875 75.445312 141.589844 C 74.542969 142.316406 73.605469 142.679688 72.644531 142.679688 C 71.839844 142.679688 71.214844 142.441406 70.769531 141.960938 C 70.324219 141.484375 70.113281 140.816406 70.113281 139.957031 C 70.113281 138.515625 70.597656 137.148438 71.566406 135.84375 C 72.535156 134.542969 73.597656 133.890625 74.746094 133.890625 C 75.125 133.890625 75.429688 134.015625 75.667969 134.261719 C 75.90625 134.507812 76.03125 134.804688 76.03125 135.152344 C 76.03125 135.925781 75.652344 136.667969 74.894531 137.378906 C 74.140625 138.085938 73.121094 138.789062 71.855469 139.472656 C 71.589844 139.613281 71.460938 139.785156 71.460938 140 C 71.460938 140.421875 71.582031 140.75 71.820312 141.003906 C 72.058594 141.261719 72.421875 141.386719 72.890625 141.386719 C 73.964844 141.386719 75.066406 140.78125 76.195312 139.585938 C 76.359375 139.421875 76.480469 139.339844 76.570312 139.339844 C 76.71875 139.347656 76.800781 139.472656 76.800781 139.734375 Z M 71.566406 138.558594 C 73.695312 137.289062 74.765625 136.265625 74.765625 135.5 C 74.765625 135.195312 74.625 135.046875 74.351562 135.046875 C 73.894531 135.046875 73.367188 135.382812 72.792969 136.066406 C 72.207031 136.742188 71.804688 137.578125 71.566406 138.558594 Z M 71.566406 138.558594 "/>
<path style=" stroke:none;fill-rule:nonzero;fill:rgb(10.980392%,15.294118%,32.54902%);fill-opacity:1;" d="M 82.167969 140.570312 C 82.167969 140.238281 81.765625 139.867188 80.960938 139.449219 C 79.941406 138.929688 79.25 138.507812 78.890625 138.1875 C 78.527344 137.875 78.347656 137.519531 78.347656 137.132812 C 78.347656 136.125 78.847656 135.300781 79.851562 134.640625 C 80.855469 133.980469 81.667969 133.652344 82.300781 133.652344 C 82.710938 133.652344 83 133.726562 83.1875 133.867188 C 83.367188 134.007812 83.457031 134.253906 83.457031 134.601562 C 83.457031 134.757812 83.394531 134.890625 83.261719 135.003906 C 83.128906 135.113281 83.023438 135.167969 82.949219 135.167969 C 82.890625 135.167969 82.785156 135.128906 82.628906 135.054688 C 82.464844 134.980469 82.367188 134.945312 82.316406 134.945312 C 82.0625 134.945312 81.550781 135.128906 80.789062 135.5 C 80.015625 135.871094 79.636719 136.28125 79.636719 136.742188 C 79.636719 137.023438 79.777344 137.28125 80.039062 137.511719 C 80.3125 137.742188 80.796875 138.019531 81.503906 138.351562 C 82.070312 138.625 82.523438 138.910156 82.859375 139.226562 C 83.195312 139.539062 83.367188 139.902344 83.367188 140.320312 C 83.367188 141.089844 82.835938 141.699219 81.78125 142.136719 C 80.722656 142.570312 79.710938 142.785156 78.75 142.785156 C 77.9375 142.785156 77.523438 142.507812 77.523438 141.953125 C 77.523438 141.765625 77.617188 141.625 77.796875 141.53125 C 77.976562 141.441406 78.167969 141.394531 78.347656 141.394531 C 78.421875 141.394531 78.570312 141.417969 78.773438 141.46875 C 78.980469 141.515625 79.121094 141.542969 79.183594 141.542969 C 79.746094 141.542969 80.34375 141.449219 80.976562 141.261719 C 81.617188 141.070312 82.011719 140.839844 82.167969 140.570312 Z M 82.167969 140.570312 "/>
<path style=" stroke:none;fill-rule:nonzero;fill:rgb(10.980392%,15.294118%,32.54902%);fill-opacity:1;" d="M 91.375 139.734375 C 91.375 140.246094 90.921875 140.875 90.015625 141.589844 C 89.113281 142.316406 88.175781 142.679688 87.214844 142.679688 C 86.410156 142.679688 85.785156 142.441406 85.339844 141.960938 C 84.898438 141.484375 84.683594 140.816406 84.683594 139.957031 C 84.683594 138.515625 85.167969 137.148438 86.136719 135.84375 C 87.109375 134.542969 88.167969 133.890625 89.320312 133.890625 C 89.695312 133.890625 90 134.015625 90.238281 134.261719 C 90.476562 134.507812 90.601562 134.804688 90.601562 135.152344 C 90.601562 135.925781 90.222656 136.667969 89.464844 137.378906 C 88.710938 138.085938 87.691406 138.789062 86.425781 139.472656 C 86.164062 139.613281 86.03125 139.785156 86.03125 140 C 86.03125 140.421875 86.15625 140.75 86.394531 141.003906 C 86.632812 141.261719 86.992188 141.386719 87.460938 141.386719 C 88.539062 141.386719 89.640625 140.78125 90.765625 139.585938 C 90.929688 139.421875 91.054688 139.339844 91.144531 139.339844 C 91.292969 139.347656 91.375 139.472656 91.375 139.734375 Z M 86.136719 138.558594 C 88.265625 137.289062 89.335938 136.265625 89.335938 135.5 C 89.335938 135.195312 89.195312 135.046875 88.925781 135.046875 C 88.464844 135.046875 87.9375 135.382812 87.363281 136.066406 C 86.777344 136.742188 86.367188 137.578125 86.136719 138.558594 Z M 86.136719 138.558594 "/>
<path style=" stroke:none;fill-rule:nonzero;fill:rgb(10.980392%,15.294118%,32.54902%);fill-opacity:1;" d="M 107.851562 132.546875 C 107.835938 132.554688 107.695312 132.546875 107.441406 132.539062 C 107.1875 132.53125 106.914062 132.554688 106.644531 132.613281 C 106.371094 132.679688 106.132812 132.722656 105.921875 132.738281 C 105.773438 132.746094 105.617188 132.769531 105.445312 132.796875 C 105.230469 132.835938 104.800781 132.859375 104.160156 132.859375 C 103.199219 132.878906 102.601562 132.945312 102.351562 133.058594 C 102.105469 133.175781 101.96875 133.414062 101.933594 133.777344 C 101.910156 134.054688 101.859375 134.363281 101.777344 134.691406 C 101.53125 135.679688 101.40625 136.339844 101.40625 136.667969 L 101.523438 136.679688 C 101.761719 136.695312 102.238281 136.660156 102.953125 136.578125 C 103.667969 136.496094 104.210938 136.414062 104.5625 136.339844 C 105.296875 136.167969 105.855469 136.074219 106.242188 136.074219 C 106.867188 136.074219 107.1875 136.25 107.1875 136.578125 C 107.1875 136.992188 106.972656 137.246094 106.554688 137.335938 C 106.132812 137.429688 105.253906 137.550781 103.929688 137.699219 C 102.304688 137.882812 101.433594 138.046875 101.324219 138.1875 C 101.21875 138.328125 101.105469 138.789062 100.980469 139.570312 C 100.859375 140.355469 100.800781 140.847656 100.800781 141.0625 L 100.800781 141.144531 C 100.824219 141.402344 100.988281 141.542969 101.285156 141.574219 L 101.425781 141.582031 C 101.703125 141.597656 102.03125 141.574219 102.410156 141.515625 L 103.855469 141.300781 C 104.390625 141.226562 104.941406 141.136719 105.492188 141.039062 C 106.183594 140.890625 106.617188 140.816406 106.800781 140.816406 C 106.9375 140.816406 107.09375 140.875 107.269531 140.996094 C 107.441406 141.121094 107.53125 141.300781 107.53125 141.558594 C 107.53125 141.746094 107.488281 141.871094 107.390625 141.945312 C 106.882812 142.167969 106.214844 142.300781 105.410156 142.324219 C 104.710938 142.347656 103.617188 142.464844 102.140625 142.679688 C 101.390625 142.785156 100.898438 142.84375 100.660156 142.84375 C 100.070312 142.84375 99.707031 142.792969 99.558594 142.703125 C 99.410156 142.613281 99.320312 142.382812 99.289062 142.019531 L 99.253906 141.765625 L 99.253906 141.730469 C 99.253906 141.648438 99.304688 141.484375 99.394531 141.238281 C 99.519531 140.882812 99.664062 140.199219 99.839844 139.191406 C 100.003906 138.1875 100.117188 137.394531 100.167969 136.808594 C 100.191406 136.613281 100.234375 136.363281 100.289062 136.074219 C 100.511719 134.871094 100.621094 133.917969 100.621094 133.222656 C 100.621094 133.191406 100.570312 133.09375 100.472656 132.945312 C 100.445312 132.910156 100.429688 132.886719 100.421875 132.871094 C 100.390625 132.753906 100.355469 132.65625 100.324219 132.582031 C 100.289062 132.515625 100.273438 132.425781 100.273438 132.332031 L 100.273438 132.257812 C 100.273438 132.152344 100.339844 132.054688 100.480469 131.960938 C 100.609375 131.878906 100.742188 131.832031 100.875 131.832031 L 100.898438 131.832031 C 101.113281 131.832031 101.351562 131.847656 101.621094 131.878906 L 101.65625 131.878906 C 101.769531 131.878906 102.328125 131.832031 103.332031 131.738281 C 104.332031 131.640625 105.527344 131.476562 106.90625 131.246094 C 107.054688 131.21875 107.136719 131.203125 107.167969 131.203125 L 107.285156 131.195312 C 107.679688 131.171875 107.949219 131.210938 108.097656 131.3125 C 108.246094 131.410156 108.335938 131.617188 108.371094 131.914062 C 108.371094 132.054688 108.304688 132.191406 108.171875 132.324219 C 108.03125 132.464844 107.933594 132.539062 107.851562 132.546875 Z M 107.851562 132.546875 "/>
<path style=" stroke:none;fill-rule:nonzero;fill:rgb(10.980392%,15.294118%,32.54902%);fill-opacity:1;" d="M 115.066406 139.167969 C 114.394531 140.246094 113.679688 141.089844 112.929688 141.671875 C 112.183594 142.257812 111.484375 142.554688 110.851562 142.554688 C 110.367188 142.554688 109.980469 142.367188 109.691406 141.996094 C 109.40625 141.625 109.265625 141.121094 109.265625 140.496094 C 109.265625 139.214844 109.78125 137.914062 110.808594 136.570312 C 111.84375 135.226562 112.957031 134.558594 114.148438 134.558594 C 114.671875 134.558594 115.15625 134.78125 115.601562 135.234375 L 116.652344 130.289062 C 116.726562 129.949219 116.867188 129.726562 117.074219 129.605469 C 117.277344 129.488281 117.433594 129.433594 117.550781 129.433594 C 117.902344 129.433594 118.074219 129.746094 118.074219 130.371094 C 118.074219 130.480469 117.960938 130.890625 117.730469 131.609375 C 117.359375 132.710938 117.015625 134.082031 116.6875 135.6875 C 116.359375 137.304688 116.191406 138.597656 116.191406 139.578125 C 116.191406 140.585938 116.414062 141.089844 116.851562 141.089844 C 117.128906 141.089844 117.425781 140.996094 117.722656 140.808594 C 117.84375 140.71875 117.96875 140.667969 118.074219 140.667969 C 118.238281 140.667969 118.3125 140.773438 118.3125 140.988281 C 118.3125 141.246094 118.089844 141.542969 117.640625 141.878906 C 117.1875 142.21875 116.726562 142.382812 116.257812 142.382812 C 115.429688 142.382812 115.019531 141.582031 115.019531 139.976562 C 115.035156 139.71875 115.042969 139.4375 115.066406 139.167969 Z M 114.082031 135.628906 C 113.265625 135.628906 112.460938 136.183594 111.664062 137.289062 C 110.867188 138.390625 110.464844 139.414062 110.464844 140.355469 C 110.464844 140.980469 110.671875 141.300781 111.089844 141.300781 C 111.484375 141.300781 111.960938 141.097656 112.519531 140.683594 C 113.078125 140.273438 113.652344 139.613281 114.246094 138.707031 C 114.835938 137.800781 115.132812 137.121094 115.132812 136.667969 C 115.132812 136.445312 115.035156 136.222656 114.828125 135.984375 C 114.625 135.746094 114.378906 135.628906 114.082031 135.628906 Z M 114.082031 135.628906 "/>
<path style=" stroke:none;fill-rule:nonzero;fill:rgb(10.980392%,15.294118%,32.54902%);fill-opacity:1;" d="M 125.191406 139.011719 C 124.550781 140.089844 123.894531 140.929688 123.21875 141.523438 C 122.546875 142.117188 121.921875 142.414062 121.347656 142.414062 C 121.015625 142.414062 120.679688 142.21875 120.335938 141.828125 C 119.988281 141.441406 119.816406 140.847656 119.816406 140.042969 C 119.816406 139.382812 119.972656 138.410156 120.292969 137.121094 C 120.558594 136.050781 120.695312 135.300781 120.695312 134.863281 C 120.84375 134.558594 121.074219 134.410156 121.378906 134.410156 C 121.59375 134.410156 121.757812 134.484375 121.890625 134.632812 C 122.011719 134.78125 122.078125 134.9375 122.078125 135.09375 C 122.078125 135.449219 121.953125 135.953125 121.707031 136.59375 C 121.238281 137.855469 121.007812 138.945312 121.007812 139.851562 C 121.007812 140.675781 121.199219 141.089844 121.585938 141.089844 C 122.070312 141.089844 122.695312 140.675781 123.449219 139.84375 C 124.207031 139.011719 124.847656 137.855469 125.390625 136.363281 C 125.601562 135.769531 125.769531 135.382812 125.90625 135.203125 C 126.046875 135.019531 126.21875 134.929688 126.449219 134.929688 C 126.785156 134.929688 126.960938 135.152344 126.960938 135.605469 C 126.960938 135.664062 126.910156 135.84375 126.820312 136.160156 C 126.515625 137.261719 126.367188 138.300781 126.367188 139.28125 C 126.367188 140.460938 126.566406 141.226562 126.953125 141.574219 C 127.148438 141.765625 127.253906 141.914062 127.253906 142.027344 C 127.253906 142.167969 127.15625 142.300781 126.953125 142.414062 C 126.746094 142.53125 126.566406 142.589844 126.402344 142.589844 C 126.046875 142.589844 125.769531 142.324219 125.546875 141.804688 C 125.332031 141.277344 125.226562 140.511719 125.226562 139.488281 L 125.226562 139.242188 C 125.183594 139.175781 125.183594 139.09375 125.191406 139.011719 Z M 125.191406 139.011719 "/>
<path style=" stroke:none;fill-rule:nonzero;fill:rgb(10.980392%,15.294118%,32.54902%);fill-opacity:1;" d="M 131.332031 142.726562 C 130.574219 142.726562 130 142.515625 129.597656 142.078125 C 129.195312 141.640625 128.988281 141.039062 128.988281 140.253906 C 128.988281 138.945312 129.507812 137.550781 130.550781 136.09375 C 131.585938 134.632812 132.554688 133.90625 133.453125 133.90625 C 133.863281 133.90625 134.207031 134.128906 134.503906 134.566406 C 134.800781 135.003906 134.949219 135.472656 134.949219 135.96875 C 134.949219 136.265625 134.882812 136.519531 134.757812 136.734375 C 134.628906 136.949219 134.503906 137.058594 134.371094 137.058594 C 134.085938 137.058594 133.878906 136.761719 133.757812 136.175781 C 133.617188 135.539062 133.425781 135.21875 133.171875 135.21875 C 132.648438 135.21875 132.03125 135.835938 131.324219 137.082031 C 130.609375 138.328125 130.253906 139.375 130.253906 140.230469 C 130.253906 141.089844 130.738281 141.515625 131.710938 141.515625 C 132.449219 141.515625 133.320312 141.171875 134.316406 140.46875 C 134.667969 140.222656 134.921875 140.097656 135.085938 140.097656 C 135.261719 140.097656 135.34375 140.199219 135.34375 140.394531 C 135.34375 140.773438 134.890625 141.261719 133.996094 141.847656 C 133.097656 142.433594 132.203125 142.726562 131.332031 142.726562 Z M 131.332031 142.726562 "/>
<path style=" stroke:none;fill-rule:nonzero;fill:rgb(10.980392%,15.294118%,32.54902%);fill-opacity:1;" d="M 142.179688 139.546875 C 141.472656 140.496094 140.78125 141.203125 140.09375 141.671875 C 139.402344 142.152344 138.777344 142.382812 138.203125 142.382812 C 137.816406 142.382812 137.480469 142.21875 137.199219 141.886719 C 136.921875 141.558594 136.78125 141.136719 136.78125 140.625 C 136.78125 139.300781 137.371094 137.875 138.546875 136.347656 C 139.730469 134.824219 140.898438 134.054688 142.066406 134.054688 C 142.484375 134.054688 142.804688 134.296875 143.011719 134.78125 C 143.074219 134.945312 143.183594 135.019531 143.324219 135.019531 C 143.726562 135.019531 143.921875 135.175781 143.921875 135.492188 C 143.921875 135.648438 143.898438 135.863281 143.847656 136.132812 C 143.578125 137.617188 143.4375 138.664062 143.4375 139.273438 C 143.4375 140.496094 143.667969 141.226562 144.128906 141.46875 C 144.351562 141.589844 144.457031 141.738281 144.457031 141.914062 C 144.457031 142.070312 144.351562 142.226562 144.136719 142.382812 C 143.921875 142.539062 143.707031 142.621094 143.511719 142.621094 C 143.125 142.621094 142.804688 142.359375 142.558594 141.820312 C 142.3125 141.285156 142.179688 140.527344 142.179688 139.546875 Z M 141.71875 135.292969 C 141.054688 135.292969 140.289062 135.917969 139.410156 137.164062 C 138.53125 138.410156 138.09375 139.449219 138.09375 140.265625 C 138.09375 140.839844 138.285156 141.128906 138.671875 141.128906 C 139.222656 141.128906 139.984375 140.570312 140.972656 139.449219 C 141.957031 138.328125 142.441406 137.304688 142.441406 136.363281 C 142.425781 135.648438 142.1875 135.292969 141.71875 135.292969 Z M 141.71875 135.292969 "/>
<path style=" stroke:none;fill-rule:nonzero;fill:rgb(10.980392%,15.294118%,32.54902%);fill-opacity:1;" d="M 149.222656 134.667969 C 149.742188 134.625 150.226562 134.574219 150.6875 134.527344 C 151.136719 134.476562 151.515625 134.453125 151.8125 134.453125 C 152.191406 134.453125 152.4375 134.484375 152.535156 134.558594 C 152.632812 134.632812 152.683594 134.757812 152.683594 134.929688 C 152.683594 135.34375 152.402344 135.558594 151.828125 135.597656 C 151.097656 135.648438 150.429688 135.703125 149.816406 135.789062 C 149.199219 135.871094 148.871094 135.9375 148.820312 135.984375 C 148.769531 136.035156 148.625 136.636719 148.367188 137.78125 C 148.113281 138.929688 147.984375 139.671875 147.984375 140.015625 C 147.984375 140.570312 148.054688 140.941406 148.203125 141.121094 C 148.351562 141.300781 148.566406 141.394531 148.863281 141.394531 C 149.296875 141.394531 149.898438 141.070312 150.660156 140.421875 C 150.957031 140.15625 151.1875 140.015625 151.34375 140.015625 C 151.558594 140.015625 151.664062 140.132812 151.664062 140.363281 C 151.664062 140.726562 151.320312 141.195312 150.621094 141.773438 C 149.921875 142.347656 149.214844 142.636719 148.484375 142.636719 C 147.265625 142.636719 146.660156 141.921875 146.660156 140.484375 C 146.660156 139.96875 146.78125 139.167969 147.039062 138.078125 C 147.285156 137 147.40625 136.347656 147.40625 136.132812 C 147.40625 136.058594 147.351562 136.019531 147.226562 136.019531 L 146.445312 136.085938 C 145.804688 136.085938 145.484375 135.828125 145.484375 135.308594 C 145.484375 135.019531 145.632812 134.871094 145.929688 134.871094 L 147.480469 134.871094 C 147.589844 134.871094 147.679688 134.824219 147.761719 134.730469 C 147.84375 134.632812 147.957031 134.320312 148.113281 133.769531 C 148.269531 133.214844 148.410156 132.679688 148.523438 132.144531 C 148.648438 131.617188 148.878906 131.351562 149.230469 131.351562 C 149.445312 131.351562 149.617188 131.425781 149.734375 131.574219 C 149.855469 131.722656 149.914062 131.863281 149.914062 131.996094 C 149.914062 132.070312 149.824219 132.425781 149.644531 133.074219 Z M 149.222656 134.667969 "/>
<path style=" stroke:none;fill-rule:nonzero;fill:rgb(10.980392%,15.294118%,32.54902%);fill-opacity:1;" d="M 154.820312 140.617188 C 154.820312 140.996094 154.871094 141.433594 154.976562 141.914062 C 154.992188 142.003906 155.007812 142.078125 155.007812 142.144531 C 155.007812 142.234375 154.925781 142.347656 154.761719 142.496094 C 154.597656 142.636719 154.417969 142.710938 154.238281 142.710938 C 153.75 142.710938 153.503906 142.265625 153.503906 141.367188 C 153.503906 140.445312 153.695312 138.976562 154.082031 136.972656 C 154.210938 136.273438 154.277344 135.84375 154.277344 135.679688 C 154.277344 135.367188 154.335938 135.09375 154.449219 134.863281 C 154.566406 134.640625 154.730469 134.527344 154.945312 134.527344 C 155.199219 134.527344 155.402344 134.582031 155.550781 134.707031 C 155.699219 134.832031 155.773438 134.972656 155.773438 135.121094 C 155.773438 135.269531 155.742188 135.464844 155.667969 135.714844 C 155.289062 137.039062 155.058594 137.996094 154.96875 138.566406 C 154.871094 139.140625 154.820312 139.828125 154.820312 140.617188 Z M 155.816406 132.175781 C 155.707031 132.175781 155.625 132.0625 155.578125 131.839844 C 155.558594 131.773438 155.527344 131.691406 155.496094 131.609375 C 155.355469 131.277344 155.289062 130.996094 155.289062 130.75 C 155.289062 130.554688 155.402344 130.347656 155.648438 130.132812 C 155.886719 129.925781 156.152344 129.820312 156.449219 129.820312 C 156.59375 129.820312 156.761719 129.875 156.941406 129.992188 C 157.121094 130.109375 157.210938 130.214844 157.210938 130.320312 C 157.210938 130.488281 157.144531 130.765625 157.03125 131.171875 C 156.90625 131.566406 156.710938 131.839844 156.449219 131.980469 C 156.160156 132.109375 155.953125 132.175781 155.816406 132.175781 Z M 155.816406 132.175781 "/>
<path style=" stroke:none;fill-rule:nonzero;fill:rgb(10.980392%,15.294118%,32.54902%);fill-opacity:1;" d="M 160.046875 142.671875 C 159.355469 142.671875 158.789062 142.40625 158.347656 141.886719 C 157.902344 141.367188 157.671875 140.71875 157.671875 139.941406 C 157.671875 138.640625 158.109375 137.363281 158.980469 136.101562 C 159.851562 134.839844 160.894531 134.203125 162.109375 134.203125 C 162.914062 134.203125 163.566406 134.519531 164.066406 135.136719 C 164.566406 135.753906 164.8125 136.496094 164.8125 137.355469 C 164.8125 138.664062 164.296875 139.875 163.269531 140.996094 C 162.234375 142.109375 161.15625 142.671875 160.046875 142.671875 Z M 158.996094 139.746094 C 158.996094 140.253906 159.101562 140.667969 159.316406 140.988281 C 159.53125 141.3125 159.808594 141.476562 160.164062 141.476562 C 160.910156 141.476562 161.65625 141.0625 162.414062 140.238281 C 163.171875 139.414062 163.546875 138.5 163.546875 137.492188 C 163.546875 136.875 163.398438 136.371094 163.113281 135.984375 C 162.824219 135.597656 162.4375 135.410156 161.945312 135.410156 C 161.140625 135.410156 160.441406 135.902344 159.867188 136.898438 C 159.292969 137.898438 158.996094 138.847656 158.996094 139.746094 Z M 158.996094 139.746094 "/>
<path style=" stroke:none;fill-rule:nonzero;fill:rgb(10.980392%,15.294118%,32.54902%);fill-opacity:1;" d="M 171.699219 136.480469 C 171.4375 136.480469 171.160156 136.652344 170.847656 136.992188 C 170.535156 137.335938 170.066406 138.105469 169.433594 139.300781 C 168.601562 140.898438 168.058594 141.8125 167.8125 142.035156 C 167.566406 142.257812 167.371094 142.367188 167.207031 142.367188 C 166.613281 142.367188 166.316406 142.078125 166.316406 141.507812 C 166.316406 141.269531 166.359375 140.921875 166.441406 140.476562 C 166.71875 138.960938 166.851562 137.355469 166.851562 135.664062 C 166.851562 135.472656 166.933594 135.261719 167.097656 135.027344 C 167.261719 134.796875 167.417969 134.675781 167.558594 134.675781 C 167.820312 134.675781 168.003906 134.757812 168.117188 134.914062 C 168.234375 135.070312 168.28125 135.398438 168.28125 135.886719 C 168.28125 136.398438 168.132812 137.445312 167.832031 139.027344 C 167.730469 139.546875 167.683594 139.882812 167.683594 140.023438 C 167.683594 140.105469 167.699219 140.148438 167.738281 140.148438 C 167.8125 140.148438 168.167969 139.546875 168.785156 138.34375 C 169.40625 137.121094 169.957031 136.257812 170.433594 135.761719 C 170.902344 135.269531 171.429688 135.011719 171.996094 135.011719 C 172.449219 135.011719 172.820312 135.21875 173.097656 135.628906 C 173.378906 136.042969 173.589844 136.792969 173.722656 137.890625 C 173.863281 139.132812 173.992188 139.910156 174.101562 140.214844 C 174.214844 140.519531 174.398438 140.667969 174.644531 140.667969 C 174.800781 140.667969 174.996094 140.609375 175.234375 140.503906 C 175.277344 140.484375 175.300781 140.46875 175.324219 140.46875 C 175.539062 140.46875 175.644531 140.59375 175.644531 140.847656 C 175.644531 141.070312 175.496094 141.300781 175.203125 141.558594 C 174.90625 141.8125 174.554688 141.929688 174.132812 141.929688 C 173.707031 141.929688 173.378906 141.753906 173.140625 141.417969 C 172.910156 141.078125 172.71875 140.171875 172.589844 138.699219 C 172.449219 137.222656 172.152344 136.480469 171.699219 136.480469 Z M 171.699219 136.480469 "/>
<path style=" stroke:none;fill-rule:nonzero;fill:rgb(10.980392%,15.294118%,32.54902%);fill-opacity:1;" d="M 191.703125 132.546875 C 191.6875 132.554688 191.558594 132.546875 191.292969 132.539062 C 191.039062 132.53125 190.769531 132.554688 190.496094 132.613281 C 190.226562 132.679688 189.988281 132.722656 189.773438 132.738281 C 189.625 132.746094 189.46875 132.769531 189.296875 132.796875 C 189.082031 132.835938 188.65625 132.859375 188.015625 132.859375 C 187.054688 132.878906 186.453125 132.945312 186.199219 133.058594 C 185.945312 133.175781 185.8125 133.414062 185.78125 133.777344 C 185.753906 134.054688 185.707031 134.363281 185.625 134.691406 C 185.375 135.679688 185.253906 136.339844 185.253906 136.667969 L 185.367188 136.679688 C 185.605469 136.695312 186.082031 136.660156 186.796875 136.578125 C 187.511719 136.496094 188.054688 136.414062 188.410156 136.339844 C 189.140625 136.167969 189.699219 136.074219 190.085938 136.074219 C 190.710938 136.074219 191.03125 136.25 191.03125 136.578125 C 191.03125 136.992188 190.824219 137.246094 190.40625 137.335938 C 189.988281 137.429688 189.109375 137.550781 187.785156 137.699219 C 186.15625 137.882812 185.285156 138.046875 185.179688 138.1875 C 185.074219 138.328125 184.957031 138.789062 184.835938 139.570312 C 184.710938 140.355469 184.652344 140.847656 184.652344 141.0625 L 184.652344 141.144531 C 184.679688 141.402344 184.84375 141.542969 185.136719 141.574219 L 185.277344 141.582031 C 185.558594 141.597656 185.886719 141.574219 186.265625 141.515625 L 187.710938 141.300781 C 188.246094 141.226562 188.796875 141.136719 189.347656 141.039062 C 190.035156 140.890625 190.472656 140.816406 190.652344 140.816406 C 190.792969 140.816406 190.949219 140.875 191.121094 140.996094 C 191.292969 141.121094 191.382812 141.300781 191.382812 141.558594 C 191.382812 141.746094 191.34375 141.871094 191.246094 141.945312 C 190.734375 142.167969 190.070312 142.300781 189.265625 142.324219 C 188.566406 142.347656 187.472656 142.464844 185.992188 142.679688 C 185.246094 142.785156 184.753906 142.84375 184.515625 142.84375 C 183.929688 142.84375 183.558594 142.792969 183.414062 142.703125 C 183.265625 142.613281 183.175781 142.382812 183.140625 142.019531 L 183.109375 141.765625 L 183.109375 141.730469 C 183.109375 141.648438 183.15625 141.484375 183.25 141.238281 C 183.371094 140.882812 183.519531 140.199219 183.691406 139.191406 C 183.855469 138.1875 183.972656 137.394531 184.019531 136.808594 C 184.046875 136.613281 184.085938 136.363281 184.144531 136.074219 C 184.367188 134.871094 184.472656 133.917969 184.472656 133.222656 C 184.472656 133.191406 184.421875 133.09375 184.324219 132.945312 C 184.300781 132.910156 184.285156 132.886719 184.273438 132.871094 C 184.242188 132.753906 184.210938 132.65625 184.175781 132.582031 C 184.144531 132.515625 184.128906 132.425781 184.128906 132.332031 L 184.128906 132.257812 C 184.128906 132.152344 184.191406 132.054688 184.332031 131.960938 C 184.472656 131.878906 184.597656 131.832031 184.726562 131.832031 L 184.753906 131.832031 C 184.964844 131.832031 185.203125 131.847656 185.476562 131.878906 L 185.507812 131.878906 C 185.625 131.878906 186.183594 131.832031 187.183594 131.738281 C 188.1875 131.648438 189.378906 131.476562 190.761719 131.246094 C 190.90625 131.21875 190.988281 131.203125 191.023438 131.203125 L 191.136719 131.195312 C 191.53125 131.171875 191.796875 131.210938 191.953125 131.3125 C 192.097656 131.417969 192.191406 131.617188 192.222656 131.914062 C 192.222656 132.054688 192.15625 132.191406 192.027344 132.324219 C 191.894531 132.457031 191.777344 132.539062 191.703125 132.546875 Z M 191.703125 132.546875 "/>
<path style=" stroke:none;fill-rule:nonzero;fill:rgb(10.980392%,15.294118%,32.54902%);fill-opacity:1;" d="M 196.117188 139.480469 C 194.976562 140.46875 194.21875 141.46875 193.851562 142.464844 C 193.710938 142.792969 193.5625 143.050781 193.421875 143.214844 C 192.824219 143.183594 192.527344 142.902344 192.527344 142.375 C 192.527344 141.605469 193.382812 140.4375 195.097656 138.871094 L 195.460938 138.53125 C 194.457031 137.023438 193.964844 135.871094 193.964844 135.0625 C 193.964844 134.34375 194.269531 133.992188 194.867188 133.992188 C 195.042969 133.992188 195.164062 134.066406 195.238281 134.214844 C 195.3125 134.363281 195.378906 134.691406 195.417969 135.210938 C 195.484375 136.011719 195.832031 136.859375 196.457031 137.757812 C 197.84375 136.5625 198.789062 135.484375 199.273438 134.535156 C 199.4375 134.230469 199.570312 134.039062 199.660156 133.957031 C 199.75 133.875 199.875 133.832031 200.023438 133.832031 C 200.203125 133.832031 200.375 133.898438 200.53125 134.046875 C 200.6875 134.1875 200.769531 134.371094 200.769531 134.582031 C 200.769531 135.085938 199.554688 136.472656 197.105469 138.722656 C 197.941406 139.800781 198.839844 140.609375 199.785156 141.144531 C 199.898438 141.210938 200.015625 141.277344 200.113281 141.351562 C 200.128906 141.394531 200.144531 141.46875 200.144531 141.566406 C 200.144531 141.78125 200.0625 141.976562 199.90625 142.152344 C 199.75 142.324219 199.5625 142.40625 199.339844 142.40625 C 198.648438 142.40625 197.582031 141.433594 196.117188 139.480469 Z M 196.117188 139.480469 "/>
<path style=" stroke:none;fill-rule:nonzero;fill:rgb(10.980392%,15.294118%,32.54902%);fill-opacity:1;" d="M 203.285156 141.417969 C 203.039062 142.324219 202.808594 143.59375 202.59375 145.234375 L 202.378906 146.660156 C 202.347656 146.859375 202.25 147.066406 202.101562 147.261719 C 201.953125 147.460938 201.8125 147.558594 201.691406 147.558594 C 201.535156 147.558594 201.351562 147.476562 201.15625 147.320312 C 200.957031 147.164062 200.859375 147.03125 200.859375 146.941406 C 200.859375 146.660156 200.925781 146.28125 201.050781 145.796875 C 201.96875 142.070312 202.429688 138.804688 202.429688 135.984375 L 202.421875 135.351562 C 202.414062 134.804688 202.503906 134.410156 202.710938 134.164062 C 202.90625 133.917969 203.144531 133.792969 203.398438 133.792969 C 203.523438 133.792969 203.636719 133.890625 203.746094 134.074219 C 203.851562 134.261719 203.910156 134.527344 203.910156 134.878906 C 203.910156 135.367188 203.859375 135.960938 203.761719 136.652344 C 203.628906 137.527344 203.5625 138.03125 203.554688 138.160156 C 204.304688 136.851562 205.101562 135.828125 205.9375 135.09375 C 206.777344 134.363281 207.558594 133.992188 208.273438 133.992188 C 208.78125 133.992188 209.210938 134.179688 209.554688 134.558594 C 209.902344 134.9375 210.082031 135.410156 210.082031 135.976562 C 210.082031 137.617188 209.457031 139.109375 208.199219 140.453125 C 206.941406 141.796875 205.71875 142.464844 204.535156 142.464844 C 204.238281 142.464844 204 142.390625 203.828125 142.234375 C 203.65625 142.09375 203.472656 141.8125 203.285156 141.417969 Z M 207.960938 135.335938 C 207.253906 135.335938 206.375 136 205.332031 137.328125 C 204.289062 138.65625 203.761719 139.695312 203.761719 140.4375 C 203.761719 140.617188 203.867188 140.792969 204.074219 140.964844 C 204.277344 141.136719 204.542969 141.21875 204.855469 141.21875 C 205.570312 141.21875 206.398438 140.683594 207.335938 139.621094 C 208.273438 138.558594 208.742188 137.511719 208.742188 136.480469 C 208.742188 136.109375 208.667969 135.828125 208.519531 135.628906 C 208.371094 135.433594 208.183594 135.335938 207.960938 135.335938 Z M 207.960938 135.335938 "/>
<path style=" stroke:none;fill-rule:nonzero;fill:rgb(10.980392%,15.294118%,32.54902%);fill-opacity:1;" d="M 218.25 139.734375 C 218.25 140.246094 217.796875 140.875 216.894531 141.589844 C 215.992188 142.316406 215.054688 142.679688 214.082031 142.679688 C 213.277344 142.679688 212.652344 142.441406 212.210938 141.960938 C 211.765625 141.484375 211.550781 140.816406 211.550781 139.957031 C 211.550781 138.515625 212.039062 137.148438 213.007812 135.84375 C 213.976562 134.542969 215.039062 133.890625 216.1875 133.890625 C 216.566406 133.890625 216.871094 134.015625 217.109375 134.261719 C 217.347656 134.507812 217.46875 134.804688 217.46875 135.152344 C 217.46875 135.925781 217.09375 136.667969 216.335938 137.378906 C 215.578125 138.085938 214.5625 138.789062 213.296875 139.472656 C 213.03125 139.613281 212.902344 139.785156 212.902344 140 C 212.902344 140.421875 213.023438 140.75 213.261719 141.003906 C 213.5 141.261719 213.863281 141.386719 214.332031 141.386719 C 215.40625 141.386719 216.515625 140.78125 217.632812 139.585938 C 217.796875 139.421875 217.921875 139.339844 218.011719 139.339844 C 218.175781 139.347656 218.25 139.472656 218.25 139.734375 Z M 213.015625 138.558594 C 215.144531 137.289062 216.210938 136.265625 216.210938 135.5 C 216.210938 135.195312 216.074219 135.046875 215.800781 135.046875 C 215.339844 135.046875 214.816406 135.382812 214.238281 136.066406 C 213.664062 136.742188 213.253906 137.578125 213.015625 138.558594 Z M 213.015625 138.558594 "/>
<path style=" stroke:none;fill-rule:nonzero;fill:rgb(10.980392%,15.294118%,32.54902%);fill-opacity:1;" d="M 221.347656 139.289062 C 221.398438 139.199219 221.457031 139.078125 221.53125 138.910156 C 221.875 138.128906 222.1875 137.511719 222.476562 137.066406 C 222.761719 136.621094 223.074219 136.191406 223.421875 135.789062 C 223.765625 135.382812 224.078125 135.070312 224.367188 134.855469 C 224.652344 134.640625 224.90625 134.492188 225.136719 134.410156 C 225.367188 134.328125 225.589844 134.289062 225.8125 134.289062 C 226.246094 134.289062 226.601562 134.417969 226.878906 134.683594 C 227.160156 134.945312 227.292969 135.261719 227.292969 135.605469 C 227.292969 135.761719 227.242188 135.902344 227.144531 136.027344 C 227.042969 136.148438 226.898438 136.214844 226.691406 136.214844 C 226.476562 136.214844 226.289062 136.125 226.109375 135.9375 C 225.925781 135.746094 225.738281 135.65625 225.539062 135.65625 C 225.015625 135.65625 224.292969 136.289062 223.371094 137.558594 C 222.449219 138.828125 221.882812 140.230469 221.6875 141.753906 C 221.636719 142.152344 221.539062 142.40625 221.398438 142.53125 C 221.257812 142.65625 221.0625 142.71875 220.804688 142.71875 C 220.558594 142.71875 220.378906 142.539062 220.273438 142.167969 C 220.164062 141.796875 220.109375 141.179688 220.109375 140.3125 C 220.109375 140.074219 220.117188 139.554688 220.148438 138.746094 C 220.183594 137.800781 220.238281 137.023438 220.328125 136.4375 C 220.347656 136.339844 220.371094 136.117188 220.402344 135.761719 C 220.4375 135.375 220.484375 135.101562 220.535156 134.953125 C 220.585938 134.804688 220.699219 134.667969 220.855469 134.535156 C 221.019531 134.402344 221.191406 134.335938 221.390625 134.335938 C 221.578125 134.335938 221.71875 134.394531 221.808594 134.519531 C 221.898438 134.640625 221.949219 134.765625 221.949219 134.898438 C 221.949219 135.09375 221.898438 135.367188 221.800781 135.730469 C 221.6875 136.125 221.621094 136.40625 221.59375 136.554688 C 221.578125 136.726562 221.554688 136.898438 221.511719 137.089844 C 221.464844 137.304688 221.414062 137.875 221.367188 138.796875 L 221.355469 139.078125 L 221.355469 139.289062 Z M 221.347656 139.289062 "/>
<path style=" stroke:none;fill-rule:nonzero;fill:rgb(10.980392%,15.294118%,32.54902%);fill-opacity:1;" d="M 231.433594 134.667969 C 231.949219 134.625 232.4375 134.574219 232.894531 134.527344 C 233.347656 134.476562 233.726562 134.453125 234.023438 134.453125 C 234.398438 134.453125 234.648438 134.484375 234.746094 134.558594 C 234.84375 134.632812 234.894531 134.757812 234.894531 134.929688 C 234.894531 135.34375 234.613281 135.558594 234.039062 135.597656 C 233.308594 135.648438 232.640625 135.703125 232.023438 135.789062 C 231.410156 135.871094 231.078125 135.9375 231.03125 135.984375 C 230.980469 136.035156 230.832031 136.636719 230.578125 137.78125 C 230.324219 138.929688 230.191406 139.671875 230.191406 140.015625 C 230.191406 140.570312 230.265625 140.941406 230.414062 141.121094 C 230.5625 141.300781 230.777344 141.394531 231.070312 141.394531 C 231.507812 141.394531 232.105469 141.070312 232.871094 140.421875 C 233.167969 140.15625 233.398438 140.015625 233.554688 140.015625 C 233.765625 140.015625 233.875 140.132812 233.875 140.363281 C 233.875 140.726562 233.527344 141.195312 232.832031 141.773438 C 232.132812 142.347656 231.425781 142.636719 230.695312 142.636719 C 229.476562 142.636719 228.867188 141.921875 228.867188 140.484375 C 228.867188 139.96875 228.992188 139.167969 229.246094 138.078125 C 229.492188 137 229.617188 136.347656 229.617188 136.132812 C 229.617188 136.058594 229.558594 136.019531 229.4375 136.019531 L 228.65625 136.085938 C 228.015625 136.085938 227.695312 135.828125 227.695312 135.308594 C 227.695312 135.019531 227.839844 134.871094 228.136719 134.871094 L 229.691406 134.871094 C 229.796875 134.871094 229.886719 134.824219 229.96875 134.730469 C 230.050781 134.632812 230.167969 134.320312 230.324219 133.769531 C 230.480469 133.214844 230.621094 132.679688 230.734375 132.144531 C 230.859375 131.617188 231.089844 131.351562 231.441406 131.351562 C 231.65625 131.351562 231.828125 131.425781 231.941406 131.574219 C 232.066406 131.722656 232.125 131.863281 232.125 131.996094 C 232.125 132.070312 232.03125 132.425781 231.851562 133.074219 Z M 231.433594 134.667969 "/>
</g>
</svg>
